<mxfile host="Electron" agent="Mozilla/5.0 (Windows NT 10.0; Win64; x64) AppleWebKit/537.36 (KHTML, like Gecko) draw.io/24.7.5 Chrome/126.0.6478.183 Electron/31.3.0 Safari/537.36" version="24.7.5">
  <diagram name="Page-1" id="-H_mtQnk-PTXWXPvYvuk">
    <mxGraphModel dx="1884" dy="2103" grid="1" gridSize="10" guides="1" tooltips="1" connect="1" arrows="1" fold="1" page="1" pageScale="1" pageWidth="1169" pageHeight="827" math="0" shadow="0">
      <root>
        <mxCell id="0" />
        <mxCell id="1" parent="0" />
        <mxCell id="nHus3uHHfyRUM51xQZgn-2" value="" style="rounded=0;whiteSpace=wrap;html=1;" vertex="1" parent="1">
          <mxGeometry x="520" y="-400" width="370" height="165" as="geometry" />
        </mxCell>
        <mxCell id="nHus3uHHfyRUM51xQZgn-1" value="" style="rounded=0;whiteSpace=wrap;html=1;" vertex="1" parent="1">
          <mxGeometry x="90" y="-400" width="370" height="165" as="geometry" />
        </mxCell>
        <mxCell id="JutpPZCcAt_5qTnCAM7k-3" value="" style="rounded=0;whiteSpace=wrap;html=1;" parent="1" vertex="1">
          <mxGeometry x="650" y="570" width="400" height="260" as="geometry" />
        </mxCell>
        <mxCell id="JutpPZCcAt_5qTnCAM7k-2" value="" style="rounded=0;whiteSpace=wrap;html=1;" parent="1" vertex="1">
          <mxGeometry x="160" y="570" width="400" height="260" as="geometry" />
        </mxCell>
        <mxCell id="zA23MoTUsTF4_91t8viU-2" value="MongoDB" style="shape=cylinder3;whiteSpace=wrap;html=1;boundedLbl=1;backgroundOutline=1;size=15;" parent="1" vertex="1">
          <mxGeometry x="330" y="611" width="60" height="80" as="geometry" />
        </mxCell>
        <mxCell id="zA23MoTUsTF4_91t8viU-3" value="pymongo-api-2" style="rounded=1;whiteSpace=wrap;html=1;" parent="1" vertex="1">
          <mxGeometry x="540" y="40" width="120" height="60" as="geometry" />
        </mxCell>
        <mxCell id="zA23MoTUsTF4_91t8viU-4" style="edgeStyle=orthogonalEdgeStyle;rounded=0;orthogonalLoop=1;jettySize=auto;html=1;exitX=0.5;exitY=1;exitDx=0;exitDy=0;entryX=0.5;entryY=0;entryDx=0;entryDy=0;" parent="1" source="zA23MoTUsTF4_91t8viU-3" target="gpL-NWRnyiDSkge0qxKx-5" edge="1">
          <mxGeometry relative="1" as="geometry">
            <mxPoint x="600" y="240" as="targetPoint" />
          </mxGeometry>
        </mxCell>
        <mxCell id="vtLKgja9SQh_hJhmvZJX-2" value="Shard1" style="text;html=1;align=center;verticalAlign=middle;whiteSpace=wrap;rounded=0;" parent="1" vertex="1">
          <mxGeometry x="330" y="570" width="60" height="30" as="geometry" />
        </mxCell>
        <mxCell id="vtLKgja9SQh_hJhmvZJX-4" value="MongoDB" style="shape=cylinder3;whiteSpace=wrap;html=1;boundedLbl=1;backgroundOutline=1;size=15;" parent="1" vertex="1">
          <mxGeometry x="210" y="732" width="60" height="80" as="geometry" />
        </mxCell>
        <mxCell id="vtLKgja9SQh_hJhmvZJX-5" value="Shard1-1" style="text;html=1;align=center;verticalAlign=middle;whiteSpace=wrap;rounded=0;" parent="1" vertex="1">
          <mxGeometry x="210" y="691" width="60" height="30" as="geometry" />
        </mxCell>
        <mxCell id="vtLKgja9SQh_hJhmvZJX-6" value="MongoDB" style="shape=cylinder3;whiteSpace=wrap;html=1;boundedLbl=1;backgroundOutline=1;size=15;" parent="1" vertex="1">
          <mxGeometry x="330" y="732" width="60" height="80" as="geometry" />
        </mxCell>
        <mxCell id="vtLKgja9SQh_hJhmvZJX-7" value="Shard1-2" style="text;html=1;align=center;verticalAlign=middle;whiteSpace=wrap;rounded=0;" parent="1" vertex="1">
          <mxGeometry x="330" y="691" width="60" height="30" as="geometry" />
        </mxCell>
        <mxCell id="vtLKgja9SQh_hJhmvZJX-8" value="MongoDB" style="shape=cylinder3;whiteSpace=wrap;html=1;boundedLbl=1;backgroundOutline=1;size=15;" parent="1" vertex="1">
          <mxGeometry x="450" y="732" width="60" height="80" as="geometry" />
        </mxCell>
        <mxCell id="vtLKgja9SQh_hJhmvZJX-9" value="Shard1-3" style="text;html=1;align=center;verticalAlign=middle;whiteSpace=wrap;rounded=0;" parent="1" vertex="1">
          <mxGeometry x="450" y="691" width="60" height="30" as="geometry" />
        </mxCell>
        <mxCell id="vtLKgja9SQh_hJhmvZJX-10" value="MongoDB" style="shape=cylinder3;whiteSpace=wrap;html=1;boundedLbl=1;backgroundOutline=1;size=15;" parent="1" vertex="1">
          <mxGeometry x="810" y="611" width="60" height="80" as="geometry" />
        </mxCell>
        <mxCell id="vtLKgja9SQh_hJhmvZJX-11" value="Shard2" style="text;html=1;align=center;verticalAlign=middle;whiteSpace=wrap;rounded=0;" parent="1" vertex="1">
          <mxGeometry x="810" y="570" width="60" height="30" as="geometry" />
        </mxCell>
        <mxCell id="vtLKgja9SQh_hJhmvZJX-12" value="MongoDB" style="shape=cylinder3;whiteSpace=wrap;html=1;boundedLbl=1;backgroundOutline=1;size=15;" parent="1" vertex="1">
          <mxGeometry x="690" y="732" width="60" height="80" as="geometry" />
        </mxCell>
        <mxCell id="vtLKgja9SQh_hJhmvZJX-13" value="Shard2-1" style="text;html=1;align=center;verticalAlign=middle;whiteSpace=wrap;rounded=0;" parent="1" vertex="1">
          <mxGeometry x="690" y="691" width="60" height="30" as="geometry" />
        </mxCell>
        <mxCell id="vtLKgja9SQh_hJhmvZJX-14" value="MongoDB" style="shape=cylinder3;whiteSpace=wrap;html=1;boundedLbl=1;backgroundOutline=1;size=15;" parent="1" vertex="1">
          <mxGeometry x="810" y="732" width="60" height="80" as="geometry" />
        </mxCell>
        <mxCell id="vtLKgja9SQh_hJhmvZJX-15" value="Shard2-2" style="text;html=1;align=center;verticalAlign=middle;whiteSpace=wrap;rounded=0;" parent="1" vertex="1">
          <mxGeometry x="810" y="691" width="60" height="30" as="geometry" />
        </mxCell>
        <mxCell id="vtLKgja9SQh_hJhmvZJX-16" value="MongoDB" style="shape=cylinder3;whiteSpace=wrap;html=1;boundedLbl=1;backgroundOutline=1;size=15;" parent="1" vertex="1">
          <mxGeometry x="930" y="732" width="60" height="80" as="geometry" />
        </mxCell>
        <mxCell id="vtLKgja9SQh_hJhmvZJX-17" value="Shard2-3" style="text;html=1;align=center;verticalAlign=middle;whiteSpace=wrap;rounded=0;" parent="1" vertex="1">
          <mxGeometry x="930" y="691" width="60" height="30" as="geometry" />
        </mxCell>
        <mxCell id="gpL-NWRnyiDSkge0qxKx-1" value="" style="whiteSpace=wrap;html=1;aspect=fixed;" parent="1" vertex="1">
          <mxGeometry x="680" y="160" width="80" height="80" as="geometry" />
        </mxCell>
        <mxCell id="gpL-NWRnyiDSkge0qxKx-2" value="Redis_1" style="text;html=1;align=center;verticalAlign=middle;whiteSpace=wrap;rounded=0;" parent="1" vertex="1">
          <mxGeometry x="690" y="190" width="60" height="30" as="geometry" />
        </mxCell>
        <mxCell id="gpL-NWRnyiDSkge0qxKx-3" value="" style="whiteSpace=wrap;html=1;aspect=fixed;" parent="1" vertex="1">
          <mxGeometry x="960" y="280" width="80" height="80" as="geometry" />
        </mxCell>
        <mxCell id="gpL-NWRnyiDSkge0qxKx-4" value="ConfigSrv" style="text;html=1;align=center;verticalAlign=middle;whiteSpace=wrap;rounded=0;" parent="1" vertex="1">
          <mxGeometry x="970" y="310" width="60" height="30" as="geometry" />
        </mxCell>
        <mxCell id="gpL-NWRnyiDSkge0qxKx-5" value="" style="whiteSpace=wrap;html=1;aspect=fixed;" parent="1" vertex="1">
          <mxGeometry x="560" y="280" width="80" height="80" as="geometry" />
        </mxCell>
        <mxCell id="gpL-NWRnyiDSkge0qxKx-6" value="Driver" style="text;html=1;align=center;verticalAlign=middle;whiteSpace=wrap;rounded=0;" parent="1" vertex="1">
          <mxGeometry x="570" y="310" width="60" height="30" as="geometry" />
        </mxCell>
        <mxCell id="JutpPZCcAt_5qTnCAM7k-1" value="" style="endArrow=none;dashed=1;html=1;dashPattern=1 3;strokeWidth=2;rounded=0;" parent="1" edge="1">
          <mxGeometry width="50" height="50" relative="1" as="geometry">
            <mxPoint x="45" y="520" as="sourcePoint" />
            <mxPoint x="1125" y="520" as="targetPoint" />
          </mxGeometry>
        </mxCell>
        <mxCell id="JutpPZCcAt_5qTnCAM7k-4" value="" style="endArrow=classic;html=1;rounded=0;entryX=0.5;entryY=0;entryDx=0;entryDy=0;exitX=0.832;exitY=1.005;exitDx=0;exitDy=0;exitPerimeter=0;" parent="1" source="zA23MoTUsTF4_91t8viU-3" target="gpL-NWRnyiDSkge0qxKx-1" edge="1">
          <mxGeometry width="50" height="50" relative="1" as="geometry">
            <mxPoint x="620" y="120" as="sourcePoint" />
            <mxPoint x="610" y="190" as="targetPoint" />
            <Array as="points">
              <mxPoint x="640" y="120" />
              <mxPoint x="720" y="120" />
            </Array>
          </mxGeometry>
        </mxCell>
        <mxCell id="JutpPZCcAt_5qTnCAM7k-10" value="" style="endArrow=classic;html=1;rounded=0;exitX=1.001;exitY=0.654;exitDx=0;exitDy=0;entryX=0;entryY=1;entryDx=0;entryDy=0;exitPerimeter=0;" parent="1" source="D5pFBZudFbf4bERwkLCO-3" target="gpL-NWRnyiDSkge0qxKx-3" edge="1">
          <mxGeometry width="50" height="50" relative="1" as="geometry">
            <mxPoint x="880" y="440" as="sourcePoint" />
            <mxPoint x="970" y="440" as="targetPoint" />
            <Array as="points">
              <mxPoint x="960" y="440" />
            </Array>
          </mxGeometry>
        </mxCell>
        <mxCell id="JutpPZCcAt_5qTnCAM7k-11" value="" style="endArrow=classic;html=1;rounded=0;entryX=0.5;entryY=1;entryDx=0;entryDy=0;exitX=0.875;exitY=0.006;exitDx=0;exitDy=0;exitPerimeter=0;" parent="1" source="JutpPZCcAt_5qTnCAM7k-3" target="gpL-NWRnyiDSkge0qxKx-3" edge="1">
          <mxGeometry width="50" height="50" relative="1" as="geometry">
            <mxPoint x="920" y="490" as="sourcePoint" />
            <mxPoint x="970" y="440" as="targetPoint" />
          </mxGeometry>
        </mxCell>
        <mxCell id="JutpPZCcAt_5qTnCAM7k-12" value="" style="endArrow=classic;html=1;rounded=0;exitX=0.5;exitY=1;exitDx=0;exitDy=0;entryX=1;entryY=0.5;entryDx=0;entryDy=0;" parent="1" source="JutpPZCcAt_5qTnCAM7k-2" target="gpL-NWRnyiDSkge0qxKx-3" edge="1">
          <mxGeometry width="50" height="50" relative="1" as="geometry">
            <mxPoint x="770" y="630" as="sourcePoint" />
            <mxPoint x="1080" y="320" as="targetPoint" />
            <Array as="points">
              <mxPoint x="360" y="920" />
              <mxPoint x="1080" y="920" />
              <mxPoint x="1080" y="320" />
            </Array>
          </mxGeometry>
        </mxCell>
        <mxCell id="D5pFBZudFbf4bERwkLCO-3" value="" style="rounded=0;whiteSpace=wrap;html=1;" parent="1" vertex="1">
          <mxGeometry x="540" y="400" width="120" height="60" as="geometry" />
        </mxCell>
        <mxCell id="D5pFBZudFbf4bERwkLCO-4" value="Mongos_router" style="text;html=1;align=center;verticalAlign=middle;whiteSpace=wrap;rounded=0;" parent="1" vertex="1">
          <mxGeometry x="570" y="415" width="60" height="30" as="geometry" />
        </mxCell>
        <mxCell id="D5pFBZudFbf4bERwkLCO-5" value="" style="endArrow=classic;html=1;rounded=0;entryX=0.5;entryY=0;entryDx=0;entryDy=0;exitX=0.834;exitY=1.008;exitDx=0;exitDy=0;exitPerimeter=0;" parent="1" source="D5pFBZudFbf4bERwkLCO-3" edge="1">
          <mxGeometry width="50" height="50" relative="1" as="geometry">
            <mxPoint x="590" y="500" as="sourcePoint" />
            <mxPoint x="840" y="570" as="targetPoint" />
            <Array as="points">
              <mxPoint x="640" y="500" />
              <mxPoint x="840" y="500" />
            </Array>
          </mxGeometry>
        </mxCell>
        <mxCell id="D5pFBZudFbf4bERwkLCO-6" value="" style="endArrow=classic;html=1;rounded=0;entryX=0.5;entryY=0;entryDx=0;entryDy=0;exitX=0.167;exitY=1;exitDx=0;exitDy=0;exitPerimeter=0;" parent="1" source="D5pFBZudFbf4bERwkLCO-3" edge="1">
          <mxGeometry width="50" height="50" relative="1" as="geometry">
            <mxPoint x="480" y="510" as="sourcePoint" />
            <mxPoint x="360" y="570" as="targetPoint" />
            <Array as="points">
              <mxPoint x="560" y="500" />
              <mxPoint x="360" y="500" />
            </Array>
          </mxGeometry>
        </mxCell>
        <mxCell id="D5pFBZudFbf4bERwkLCO-7" value="" style="endArrow=classic;html=1;rounded=0;entryX=0.5;entryY=0;entryDx=0;entryDy=0;exitX=0.5;exitY=1;exitDx=0;exitDy=0;" parent="1" target="D5pFBZudFbf4bERwkLCO-3" edge="1">
          <mxGeometry width="50" height="50" relative="1" as="geometry">
            <mxPoint x="600" y="360" as="sourcePoint" />
            <mxPoint x="560" y="320" as="targetPoint" />
          </mxGeometry>
        </mxCell>
        <mxCell id="DFJyYoalADa3zj80xLdo-1" value="" style="whiteSpace=wrap;html=1;aspect=fixed;" parent="1" vertex="1">
          <mxGeometry x="800" y="160" width="80" height="80" as="geometry" />
        </mxCell>
        <mxCell id="DFJyYoalADa3zj80xLdo-2" value="Redis_2" style="text;html=1;align=center;verticalAlign=middle;whiteSpace=wrap;rounded=0;" parent="1" vertex="1">
          <mxGeometry x="810" y="190" width="60" height="30" as="geometry" />
        </mxCell>
        <mxCell id="DFJyYoalADa3zj80xLdo-3" value="" style="endArrow=classic;html=1;rounded=0;" parent="1" edge="1">
          <mxGeometry width="50" height="50" relative="1" as="geometry">
            <mxPoint x="720" y="120" as="sourcePoint" />
            <mxPoint x="840" y="160" as="targetPoint" />
            <Array as="points">
              <mxPoint x="840" y="120" />
            </Array>
          </mxGeometry>
        </mxCell>
        <mxCell id="3GetYFjRv6sOVLS_DB64-1" value="pymongo-api-1" style="rounded=1;whiteSpace=wrap;html=1;" parent="1" vertex="1">
          <mxGeometry x="320" y="40" width="120" height="60" as="geometry" />
        </mxCell>
        <mxCell id="3GetYFjRv6sOVLS_DB64-2" value="" style="endArrow=classic;html=1;rounded=0;entryX=0;entryY=0;entryDx=0;entryDy=0;exitX=0.5;exitY=1;exitDx=0;exitDy=0;" parent="1" source="3GetYFjRv6sOVLS_DB64-1" target="gpL-NWRnyiDSkge0qxKx-5" edge="1">
          <mxGeometry width="50" height="50" relative="1" as="geometry">
            <mxPoint x="510" y="150" as="sourcePoint" />
            <mxPoint x="560" y="200" as="targetPoint" />
            <Array as="points">
              <mxPoint x="380" y="160" />
              <mxPoint x="560" y="160" />
            </Array>
          </mxGeometry>
        </mxCell>
        <mxCell id="3GetYFjRv6sOVLS_DB64-3" value="" style="endArrow=none;html=1;rounded=0;entryX=0.914;entryY=1;entryDx=0;entryDy=0;entryPerimeter=0;" parent="1" target="3GetYFjRv6sOVLS_DB64-1" edge="1">
          <mxGeometry width="50" height="50" relative="1" as="geometry">
            <mxPoint x="640" y="120" as="sourcePoint" />
            <mxPoint x="530" y="130" as="targetPoint" />
            <Array as="points">
              <mxPoint x="430" y="120" />
            </Array>
          </mxGeometry>
        </mxCell>
        <mxCell id="3GetYFjRv6sOVLS_DB64-5" value="" style="rounded=0;whiteSpace=wrap;html=1;" parent="1" vertex="1">
          <mxGeometry x="320" y="-120" width="120" height="60" as="geometry" />
        </mxCell>
        <mxCell id="3GetYFjRv6sOVLS_DB64-7" value="" style="rounded=0;whiteSpace=wrap;html=1;" parent="1" vertex="1">
          <mxGeometry x="430" y="-110" width="70" height="40" as="geometry" />
        </mxCell>
        <mxCell id="3GetYFjRv6sOVLS_DB64-8" value="" style="rounded=0;whiteSpace=wrap;html=1;" parent="1" vertex="1">
          <mxGeometry x="540" y="-120" width="120" height="60" as="geometry" />
        </mxCell>
        <mxCell id="3GetYFjRv6sOVLS_DB64-9" value="" style="endArrow=classic;html=1;rounded=0;entryX=0;entryY=0.5;entryDx=0;entryDy=0;exitX=1;exitY=0.5;exitDx=0;exitDy=0;" parent="1" source="3GetYFjRv6sOVLS_DB64-7" target="3GetYFjRv6sOVLS_DB64-8" edge="1">
          <mxGeometry width="50" height="50" relative="1" as="geometry">
            <mxPoint x="410" y="-20" as="sourcePoint" />
            <mxPoint x="460" y="-70" as="targetPoint" />
          </mxGeometry>
        </mxCell>
        <mxCell id="3GetYFjRv6sOVLS_DB64-10" value="" style="endArrow=classic;html=1;rounded=0;entryX=0.75;entryY=0;entryDx=0;entryDy=0;exitX=0.414;exitY=1.004;exitDx=0;exitDy=0;exitPerimeter=0;" parent="1" source="3GetYFjRv6sOVLS_DB64-5" target="zA23MoTUsTF4_91t8viU-3" edge="1">
          <mxGeometry width="50" height="50" relative="1" as="geometry">
            <mxPoint x="370" y="-40" as="sourcePoint" />
            <mxPoint x="530" y="-80" as="targetPoint" />
            <Array as="points">
              <mxPoint x="370" y="-20" />
              <mxPoint x="630" y="-20" />
            </Array>
          </mxGeometry>
        </mxCell>
        <mxCell id="3GetYFjRv6sOVLS_DB64-11" value="" style="endArrow=classic;html=1;rounded=0;entryX=0.417;entryY=0;entryDx=0;entryDy=0;entryPerimeter=0;" parent="1" target="3GetYFjRv6sOVLS_DB64-1" edge="1">
          <mxGeometry width="50" height="50" relative="1" as="geometry">
            <mxPoint x="370" y="-20" as="sourcePoint" />
            <mxPoint x="440" as="targetPoint" />
          </mxGeometry>
        </mxCell>
        <mxCell id="3GetYFjRv6sOVLS_DB64-12" value="" style="endArrow=classic;html=1;rounded=0;exitX=0.75;exitY=0;exitDx=0;exitDy=0;entryX=0.413;entryY=1;entryDx=0;entryDy=0;entryPerimeter=0;" parent="1" source="3GetYFjRv6sOVLS_DB64-1" target="3GetYFjRv6sOVLS_DB64-8" edge="1">
          <mxGeometry width="50" height="50" relative="1" as="geometry">
            <mxPoint x="430" y="20" as="sourcePoint" />
            <mxPoint x="610" as="targetPoint" />
            <Array as="points">
              <mxPoint x="410" />
              <mxPoint x="590" />
            </Array>
          </mxGeometry>
        </mxCell>
        <mxCell id="3GetYFjRv6sOVLS_DB64-13" value="" style="endArrow=none;html=1;rounded=0;exitX=0.421;exitY=-0.002;exitDx=0;exitDy=0;exitPerimeter=0;" parent="1" source="zA23MoTUsTF4_91t8viU-3" edge="1">
          <mxGeometry width="50" height="50" relative="1" as="geometry">
            <mxPoint x="520" y="30" as="sourcePoint" />
            <mxPoint x="590" as="targetPoint" />
          </mxGeometry>
        </mxCell>
        <mxCell id="3GetYFjRv6sOVLS_DB64-14" value="" style="endArrow=classic;html=1;rounded=0;entryX=0.5;entryY=0;entryDx=0;entryDy=0;exitX=0.5;exitY=1;exitDx=0;exitDy=0;" parent="1" target="3GetYFjRv6sOVLS_DB64-5" edge="1" source="KQjMdFrokaeW1czZui5J-1">
          <mxGeometry width="50" height="50" relative="1" as="geometry">
            <mxPoint x="380" y="-200" as="sourcePoint" />
            <mxPoint x="520" y="-110" as="targetPoint" />
          </mxGeometry>
        </mxCell>
        <mxCell id="3GetYFjRv6sOVLS_DB64-15" value="APISIX&lt;div&gt;Gateway&lt;/div&gt;" style="text;html=1;align=center;verticalAlign=middle;whiteSpace=wrap;rounded=0;" parent="1" vertex="1">
          <mxGeometry x="350" y="-105" width="60" height="30" as="geometry" />
        </mxCell>
        <mxCell id="3GetYFjRv6sOVLS_DB64-16" value="consul_kv" style="text;html=1;align=center;verticalAlign=middle;whiteSpace=wrap;rounded=0;" parent="1" vertex="1">
          <mxGeometry x="435" y="-105" width="60" height="30" as="geometry" />
        </mxCell>
        <mxCell id="3GetYFjRv6sOVLS_DB64-17" value="Consul" style="text;html=1;align=center;verticalAlign=middle;whiteSpace=wrap;rounded=0;" parent="1" vertex="1">
          <mxGeometry x="570" y="-105" width="60" height="30" as="geometry" />
        </mxCell>
        <mxCell id="KQjMdFrokaeW1czZui5J-1" value="" style="rounded=0;whiteSpace=wrap;html=1;" parent="1" vertex="1">
          <mxGeometry x="320" y="-340" width="120" height="60" as="geometry" />
        </mxCell>
        <mxCell id="KQjMdFrokaeW1czZui5J-2" value="" style="rounded=0;whiteSpace=wrap;html=1;" parent="1" vertex="1">
          <mxGeometry x="540" y="-340" width="120" height="60" as="geometry" />
        </mxCell>
        <mxCell id="KQjMdFrokaeW1czZui5J-3" value="CDN-1" style="text;html=1;align=center;verticalAlign=middle;whiteSpace=wrap;rounded=0;" parent="1" vertex="1">
          <mxGeometry x="350" y="-325" width="60" height="30" as="geometry" />
        </mxCell>
        <mxCell id="KQjMdFrokaeW1czZui5J-4" value="CDN-2" style="text;html=1;align=center;verticalAlign=middle;whiteSpace=wrap;rounded=0;" parent="1" vertex="1">
          <mxGeometry x="570" y="-325" width="60" height="30" as="geometry" />
        </mxCell>
        <mxCell id="KQjMdFrokaeW1czZui5J-5" value="" style="rounded=0;whiteSpace=wrap;html=1;" parent="1" vertex="1">
          <mxGeometry x="170" y="-340" width="120" height="60" as="geometry" />
        </mxCell>
        <mxCell id="KQjMdFrokaeW1czZui5J-6" value="Cash-1" style="text;html=1;align=center;verticalAlign=middle;whiteSpace=wrap;rounded=0;" parent="1" vertex="1">
          <mxGeometry x="200" y="-325" width="60" height="30" as="geometry" />
        </mxCell>
        <mxCell id="KQjMdFrokaeW1czZui5J-7" value="" style="rounded=0;whiteSpace=wrap;html=1;" parent="1" vertex="1">
          <mxGeometry x="690" y="-340" width="120" height="60" as="geometry" />
        </mxCell>
        <mxCell id="KQjMdFrokaeW1czZui5J-8" value="Cash-2" style="text;html=1;align=center;verticalAlign=middle;whiteSpace=wrap;rounded=0;" parent="1" vertex="1">
          <mxGeometry x="720" y="-325" width="60" height="30" as="geometry" />
        </mxCell>
        <mxCell id="KQjMdFrokaeW1czZui5J-9" value="" style="endArrow=classic;html=1;rounded=0;entryX=0.5;entryY=0;entryDx=0;entryDy=0;" parent="1" target="KQjMdFrokaeW1czZui5J-1" edge="1">
          <mxGeometry width="50" height="50" relative="1" as="geometry">
            <mxPoint x="380" y="-440" as="sourcePoint" />
            <mxPoint x="560" y="-250" as="targetPoint" />
          </mxGeometry>
        </mxCell>
        <mxCell id="KQjMdFrokaeW1czZui5J-10" value="" style="endArrow=classic;html=1;rounded=0;entryX=0.5;entryY=0;entryDx=0;entryDy=0;" parent="1" edge="1">
          <mxGeometry width="50" height="50" relative="1" as="geometry">
            <mxPoint x="599.66" y="-440" as="sourcePoint" />
            <mxPoint x="599.66" y="-340" as="targetPoint" />
          </mxGeometry>
        </mxCell>
        <mxCell id="KQjMdFrokaeW1czZui5J-11" value="" style="endArrow=classic;html=1;rounded=0;entryX=1;entryY=0.5;entryDx=0;entryDy=0;exitX=0;exitY=0.5;exitDx=0;exitDy=0;" parent="1" source="KQjMdFrokaeW1czZui5J-1" target="KQjMdFrokaeW1czZui5J-5" edge="1">
          <mxGeometry width="50" height="50" relative="1" as="geometry">
            <mxPoint x="300" y="-270" as="sourcePoint" />
            <mxPoint x="350" y="-320" as="targetPoint" />
          </mxGeometry>
        </mxCell>
        <mxCell id="KQjMdFrokaeW1czZui5J-12" value="" style="endArrow=classic;html=1;rounded=0;entryX=0;entryY=0.5;entryDx=0;entryDy=0;exitX=1;exitY=0.5;exitDx=0;exitDy=0;" parent="1" source="KQjMdFrokaeW1czZui5J-2" target="KQjMdFrokaeW1czZui5J-7" edge="1">
          <mxGeometry width="50" height="50" relative="1" as="geometry">
            <mxPoint x="610" y="-280" as="sourcePoint" />
            <mxPoint x="660" y="-330" as="targetPoint" />
          </mxGeometry>
        </mxCell>
        <mxCell id="nHus3uHHfyRUM51xQZgn-3" value="Region-1" style="text;html=1;align=center;verticalAlign=middle;whiteSpace=wrap;rounded=0;" vertex="1" parent="1">
          <mxGeometry x="120" y="-390" width="60" height="30" as="geometry" />
        </mxCell>
        <mxCell id="nHus3uHHfyRUM51xQZgn-4" value="Region-2" style="text;html=1;align=center;verticalAlign=middle;whiteSpace=wrap;rounded=0;" vertex="1" parent="1">
          <mxGeometry x="810" y="-390" width="60" height="30" as="geometry" />
        </mxCell>
        <mxCell id="nHus3uHHfyRUM51xQZgn-5" value="Пользователи" style="shape=umlActor;verticalLabelPosition=bottom;verticalAlign=top;html=1;outlineConnect=0;" vertex="1" parent="1">
          <mxGeometry x="365" y="-530" width="30" height="60" as="geometry" />
        </mxCell>
        <mxCell id="nHus3uHHfyRUM51xQZgn-6" value="Пользователи" style="shape=umlActor;verticalLabelPosition=bottom;verticalAlign=top;html=1;outlineConnect=0;" vertex="1" parent="1">
          <mxGeometry x="585" y="-530" width="30" height="60" as="geometry" />
        </mxCell>
        <mxCell id="nHus3uHHfyRUM51xQZgn-7" value="" style="endArrow=none;html=1;rounded=0;entryX=0.5;entryY=1;entryDx=0;entryDy=0;" edge="1" parent="1" target="KQjMdFrokaeW1czZui5J-2">
          <mxGeometry width="50" height="50" relative="1" as="geometry">
            <mxPoint x="380" y="-180" as="sourcePoint" />
            <mxPoint x="550" y="-190" as="targetPoint" />
            <Array as="points">
              <mxPoint x="600" y="-180" />
            </Array>
          </mxGeometry>
        </mxCell>
      </root>
    </mxGraphModel>
  </diagram>
</mxfile>
